PathFileType	4	(X/Y/Z)	C:/Users/beibeiliu/ov580/test_trc/User1\sequence.11_training_dense_right.trc
DataRate	CameraRate	NumFrames	NumMarkers	Units	OrigDataRate	OrigDataStartFrame	OrigNumFrames
120	120	21	19	mm	120	214	341
Frame#	Time	ThumbCMC			ThumbMCP			ThumbIP			ThumbTip			IndexMCP			IndexPIP			IndexTip			MiddleMCP			MiddlePIP			MiddleTip			RingMCP			RingPIP			RingTip			PinkyMCP			PinkyPIP			PinkyTip			BackHand1			BackHand2			BackHand3	
		X0	Y0	Z0	X1	Y1	Z1	X2	Y2	Z2	X3	Y3	Z3	X4	Y4	Z4	X5	Y5	Z5	X6	Y6	Z6	X7	Y7	Z7	X8	Y8	Z8	X9	Y9	Z9	X10	Y10	Z10	X11	Y11	Z11	X12	Y12	Z12	X13	Y13	Z13	X14	Y14	Z14	X15	Y15	Z15	X16	Y16	Z16	X17	Y17	Z17	X18	Y18	Z18	
213	1.775	128.063	114.82	48.184	113.637	98.5667	12.3483	113.835	91.0167	-15.9782	130.29	79.8005	-39.5968	135.581	138.898	-27.5864	124.093	111.368	-42.3429	119.894	96.0606	-7.01222	157.635	121.673	-35.4642	140.118	89.6939	-35.5678	146.234	90.195	6.47756	169.002	100.532	-30.8903	153.64	75.7852	-18.0858	156.932	88.8495	16.0315	186.306	86.1435	-16.3558	166.514	69.7061	-0.463363	166.527	88.5627	24.2055	195.43	125.659	26.6663	197.188	116.871	61.6564	164.331	138.478	49.5051	
214	1.78333	127.487	115.194	49.2101	116.884	98.6318	16.4488	113.356	92.7396	-16.3217	125.535	79.8324	-38.5093	136.959	139.788	-29.6845	127.556	112.221	-43.3321	120.993	97.3707	-10.6245	156.39	122.456	-36.221	143.755	91.0432	-37.336	142.244	90.9095	4.21823	169.927	101.411	-31.2825	152.618	75.7384	-16.6899	157.813	85.8923	14.4894	187.798	84.6739	-17.1538	165.035	72.9294	-0.284059	167.46	90.5963	25.0653	197.891	125.986	21.9105	201.011	118.526	58.4134	167.717	136.926	47.5621	
215	1.79167	129.5	116.796	47.0423	117.406	101.001	12.319	115.178	94.6203	-13.9087	124.525	82.6421	-39.967	142.53	142.276	-31.8789	128.763	116.84	-47.6511	121.373	98.2027	-18.4748	156.417	123.45	-37.8165	142.738	93.7749	-38.1579	145.121	92.3604	3.92448	174.364	99.9729	-30.3552	151.365	78.3589	-15.8684	155.386	87.7102	13.0752	186.808	86.8559	-18.103	166.792	71.0532	-2.84145	165.125	88.1445	24.7693	196.697	126.527	24.6896	198.865	118.833	59.3895	166.327	141.614	46.2225	
216	1.8	127.397	117.911	46.6127	118.698	100.395	13.2635	117.993	94.9635	-16.6822	125.543	83.893	-41.9972	144.215	149.014	-29.7559	134.908	127.69	-53.3614	122.522	98.9005	-35.0581	159.715	127.505	-35.3264	143.484	94.0055	-35.5666	140.354	95.6332	1.71569	172.126	103.02	-31.4851	154.524	79.3913	-19.0715	156.071	91.7844	14.8534	188.494	89.1443	-17.4075	165.781	77.2654	-3.02984	169.551	91.7298	26.212	195.964	130.403	22.5721	200.745	120.958	57.111	167.906	138.904	47.9924	
217	1.80833	128.108	116.925	46.98	115.325	99.744	13.5824	114.515	94.4805	-18.2839	125.723	83.1661	-38.6776	145.16	154.775	-28.6416	139.061	139.001	-58.312	124.751	106.166	-56.3782	160.022	124.783	-38.9174	144.613	94.791	-37.3059	143.819	96.7755	3.56311	172.501	103.714	-31.4686	155.741	78.649	-17.3405	154.327	90.174	14.2707	190.082	90.8093	-17.9704	167.912	76.1651	-5.30256	164.715	93.5839	21.8607	195.857	128.427	24.1165	199.476	123.221	56.4795	165.856	141.126	45.6788	
218	1.81667	128.26	117.234	47.2721	116.263	99.7618	11.7679	114.149	94.1515	-18.7221	123.766	82.7482	-41.7803	145.926	156.46	-26.8238	143.053	147.54	-58.7354	134.189	117.548	-74.448	157.302	128.13	-37.9247	143.96	94.278	-37.3215	143.506	95.1775	3.37613	171.87	104.053	-31.3538	156.967	78.3611	-20.9807	155.185	87.1659	12.9014	188.889	95.5416	-18.9612	169.322	74.7206	-8.45078	166.625	96.3157	21.1428	195.291	132.186	26.1897	196.321	125.216	59.6159	166.936	142.076	45.2802	
219	1.825	129.01	116.254	48.1426	113.078	99.8458	13.3125	113.233	95.8245	-17.6123	123.659	83.9307	-40.547	148.365	155.448	-24.8572	147.351	152.34	-58.1367	142.894	137.113	-81.3265	157.46	128	-39.1601	143.491	97.0151	-39.5739	141.413	92.9192	-0.117435	173.647	103.722	-31.5299	154.135	80.3452	-20.8619	152.427	85.8908	13.3109	186.745	94.3965	-20.6386	167.511	78.6835	-10.1774	166.057	92.9953	19.8501	194.91	130.858	24.3586	195.047	123.979	58.8423	163.217	140.71	48.3583	
220	1.83333	125.31	118.289	48.9591	115.142	101.736	12.4208	111.753	94.7045	-15.7693	124.899	85.4165	-41.4571	143.616	159.431	-26.6726	144.566	159.273	-56.5024	144.399	153.024	-82.7775	157.941	128.102	-39.5423	139.292	96.9089	-38.3886	143.48	91.6095	-1.18003	173.469	109.237	-29.7606	154.98	79.1312	-22.0477	150.696	82.9813	11.2712	186.898	95.5993	-19.2055	166.324	76.6179	-6.32583	163.231	95.3434	18.82	195.59	130.892	23.733	194.105	122.838	60.9984	163.138	143.169	43.1306	
221	1.84167	125.781	118.008	47.7896	111.782	99.7053	15.5228	112.462	94.5853	-11.9358	123.947	85.0106	-39.8871	145.778	158.287	-26.1227	147.076	159.822	-50.2719	146.41	161.554	-77.6397	158.473	128.893	-36.7175	137.705	97.709	-38.7313	140.515	91.0151	-1.64193	174.302	107.808	-28.6668	154.02	77.8825	-21.7752	147.272	79.7827	8.994	191.978	92.2356	-18.16	166.431	79.8461	-10.2133	163.553	92.672	19.6896	194.387	132.551	26.7263	192.924	124.23	61.6401	163.786	143.541	47.2834	
222	1.85	126.004	117.819	47.2122	114.148	100.311	18.2852	110.588	95.1336	-14.8126	120.611	82.7735	-37.0661	144.242	157.667	-25.7332	148.072	160.92	-51.8218	148.754	163.222	-74.2173	156.909	129.481	-35.7984	138.816	96.5304	-39.788	137.844	88.763	-3.58069	171.088	105.311	-30.7852	154.701	78.1625	-23.4391	148.197	76.6444	11.1795	189.057	89.5902	-18.6948	164.294	79.7017	-6.88428	159.007	97.1507	16.6093	195.676	131.969	25.4766	193.779	125.827	58.3115	160.251	144.023	44.54	
223	1.85833	128.231	116.683	48.1615	113.204	100.326	14.4187	112.994	92.8504	-8.93138	123.932	81.1485	-39.6885	142.61	156.7	-23.7901	143.457	162.747	-48.6624	151.153	163.839	-76.4369	154.683	125.786	-38.3539	141.142	92.8018	-38.4788	139.246	86.7192	-3.6436	172.02	101.565	-31.2231	152.303	76.4999	-22.0753	147.645	73.3559	11.8036	191.231	93.6212	-14.9531	163.358	79.5216	-5.6546	162.053	96.9264	21.787	192.013	133.749	25.9495	193.585	128.592	59.5458	160.904	144.254	47.8971	
224	1.86667	124.308	115.587	49.0537	115.395	96.5899	15.3829	113.903	87.9057	-9.97083	122.654	74.2086	-35.1483	142.074	151.255	-26.7246	143.266	154.719	-50.9981	148.503	159.558	-77.5873	154.305	122.057	-38.1471	143.032	86.3415	-37.5315	138.695	83.0244	-0.559251	174.852	100.98	-27.4768	154.324	70.3056	-20.4009	146.477	71.3295	12.5813	188.982	87.8073	-15.2754	163.812	76.0384	-4.46896	159.17	92.4974	21.2147	192.328	130.771	22.0847	192.543	125.313	58.3561	161.225	142.32	46.0082	
225	1.875	123.788	114.021	46.576	112.732	91.1508	18.0764	113.223	82.6869	-10.8643	123.853	68.0801	-33.5191	143.365	145.8	-28.8916	139.765	150.038	-54.5501	149.668	150.816	-77.7266	154.705	114.085	-39.071	139.064	83.0721	-37.2347	138.747	78.5992	-0.365167	172.251	91.8755	-29.4452	152.734	68.8127	-19.8719	150.533	64.3723	13.4537	185.886	83.9952	-15.9748	166.952	67.3006	-0.732634	160.775	91.54	25.2969	187.951	128.26	20.3569	194.157	124.25	57.115	159.074	141.215	45.1038	
226	1.88333	127.006	110.659	49.2065	112.46	88.0653	14.3195	112.59	77.404	-9.03717	124.934	62.3616	-34.7379	139.936	141.157	-27.9769	143.8	142.414	-55.097	149.749	144.557	-77.491	157.599	106.292	-40.5559	139.696	77.0759	-35.7522	141.563	76.43	2.48753	170.934	87.3133	-28.9876	155.828	63.2349	-18.6628	149.095	63.6148	13.4451	190.111	81.1856	-13.1637	166.749	66.2661	-1.33021	159.514	84.6101	24.5616	193.23	126.002	19.0522	191.05	123.494	58.5917	158.506	137.331	41.6583	
227	1.89167	127.66	108.964	47.9443	112.015	84.5678	16.3474	116.482	74.8464	-11.1775	126.786	61.0001	-29.7844	143.918	137.155	-33.8824	143.251	139.505	-59.6995	148.823	141.207	-81.3854	158.715	102.898	-40.8936	141.869	73.106	-35.6181	142.724	73.6181	2.64401	172.063	84.1755	-28.6927	154.666	59.726	-17.0725	152.255	62.0991	18.7972	189.283	76.7272	-13.8422	167.157	63.1794	1.50129	164.341	82.0449	26.3458	192.075	123.294	19.2954	191.904	122.929	58.4862	162.051	135.186	42.6533	
228	1.9	122.467	108.29	42.8489	111.108	83.4501	16.604	117.324	73.5794	-11.9358	129.915	58.0379	-32.9019	143.555	134.046	-32.1553	143.217	136.643	-55.5845	145.896	141.501	-84.0503	160.482	102.545	-38.4079	144.482	70.9771	-35.9112	140.357	72.9614	3.82841	173.323	86.2949	-27.1825	157.603	55.9857	-13.9574	151.878	62.6057	19.3729	193.684	74.3489	-12.0644	170.433	59.6963	-1.74671	161.998	82.714	24.0041	190.833	123.106	21.5252	190.644	122.925	56.787	156.949	136.476	37.9478	
229	1.90833	123.348	107.12	45.7165	113.152	82.6983	18.5438	114.784	72.1557	-10.804	127.71	56.7029	-30.45	142.784	134.681	-32.5595	143.239	135.875	-56.0298	149.81	139.452	-84.8807	155.644	103.707	-37.943	143.573	67.9234	-32.8245	141.333	74.6569	4.88438	171.149	82.448	-29.4846	156.023	56.0272	-13.8203	153.47	60.1949	16.1237	190.667	71.4056	-13.816	167.64	62.8643	0.770957	165.014	82.6746	25.0309	192.513	121.083	17.5476	190.851	122.222	58.7794	157.449	135.924	39.6027	
230	1.91667	128.594	108.191	43.6714	116.068	83.8978	15.1769	116.321	72.4464	-9.75514	132.385	59.5807	-31.8398	141.675	135.47	-32.1047	143.815	134.253	-54.8884	145.925	138.196	-80.3816	159.216	102.742	-38.366	141.349	69.5267	-33.6266	140.278	72.7203	2.40962	171.61	85.4344	-27.7605	156.238	56.4119	-12.9748	151.95	64.6892	18.9871	189.137	72.7358	-14.246	168.831	60.2467	1.81419	164.895	79.1036	22.8334	194.417	120.253	21.7412	195.622	120.745	58.7405	158.191	134.064	40.9578	
231	1.925	125.713	109.157	45.475	113.212	85.5305	14.4675	112.518	74.1183	-10.3385	130.954	61.1331	-31.6652	141.066	136.838	-32.2791	141.317	137.699	-59.7604	148.864	139.437	-82.8376	159.925	101.413	-38.5093	142.146	70.1475	-32.5844	143.874	73.0361	3.4393	171.656	84.8185	-27.6331	155.798	58.4044	-16.6905	154.454	61.1529	16.2829	193.545	72.1451	-13.967	168.782	59.5927	1.93151	162.818	82.0644	22.6055	193.966	120.518	20.4228	196.724	121.254	54.7837	163.761	134.272	38.4012	
232	1.93333	130.194	110.397	47.1416	116.692	87.3426	16.7687	115.816	77.2627	-13.9138	130.522	61.2312	-34.4408	144.596	138.225	-35.3348	144.298	138.027	-59.4764	148.985	140.564	-81.7549	158.713	101.485	-41.0706	143.69	73.0449	-35.7346	145.448	77.8306	7.13943	174.477	82.5651	-29.4451	153.543	59.206	-14.1902	151.174	64.1302	17.2591	190.396	74.429	-16.0852	166.479	63.2973	-0.374656	163.17	82.5005	19.6167	196.58	120.517	16.7629	199.002	119.61	58.1348	160.87	136.504	40.8919	
233	1.94167	130.473	111.92	46.3066	115.092	89.8486	15.0076	116.638	80.1706	-15.2747	127.589	63.4918	-35.3083	144.311	140.096	-31.3834	144.718	142.269	-60.161	148.608	141.749	-80.6316	156.766	109.186	-40.3801	142.62	77.2208	-36.9111	142.597	79.2094	4.72136	174.699	87.5384	-29.4619	158.602	60.7472	-18.038	153.596	63.6183	16.9038	193.431	77.8229	-14.0845	167.488	64.9048	0.274597	164.477	84.262	22.1126	197.584	122.664	21.3728	197.726	123.434	54.1933	165.94	136.469	40.2482	
